<svg width="70" height="70" viewBox="0 0 70 70" fill="none" xmlns="http://www.w3.org/2000/svg">
<g clip-path="url(#clip0)">
<path d="M35 29.1667C33.7925 29.1667 32.8125 28.1867 32.8125 26.9792V22.6042C32.8125 21.3967 33.7925 20.4167 35 20.4167C36.2075 20.4167 37.1875 21.3967 37.1875 22.6042V26.9792C37.1875 28.1867 36.2075 29.1667 35 29.1667Z" fill="#0090FF"/>
<path d="M36.0939 24.7917H29.896C28.6885 24.7917 27.7085 23.8117 27.7085 22.6042C27.7085 21.3967 28.6885 20.4167 29.896 20.4167H36.0939C37.1002 20.4167 37.9168 19.6 37.9168 18.5938C37.9168 17.5875 37.1002 16.7708 36.0939 16.7708H33.9064C30.4881 16.7708 27.7085 13.9913 27.7085 10.5729C27.7085 7.15458 30.4881 4.375 33.9064 4.375H40.1043C41.3118 4.375 42.2918 5.355 42.2918 6.5625C42.2918 7.77 41.3118 8.75 40.1043 8.75H33.9064C32.9002 8.75 32.0835 9.56667 32.0835 10.5729C32.0835 11.5792 32.9002 12.3958 33.9064 12.3958H36.0939C39.5122 12.3958 42.2918 15.1754 42.2918 18.5938C42.2918 22.0121 39.5122 24.7917 36.0939 24.7917Z" fill="#0090FF"/>
<path d="M35 8.75C33.7925 8.75 32.8125 7.77 32.8125 6.5625V2.1875C32.8125 0.98 33.7925 0 35 0C36.2075 0 37.1875 0.98 37.1875 2.1875V6.5625C37.1875 7.77 36.2075 8.75 35 8.75Z" fill="#0090FF"/>
<path d="M59.7915 68.5417C58.584 68.5417 57.604 67.5617 57.604 66.3542V61.9792C57.604 60.7717 58.584 59.7917 59.7915 59.7917C60.999 59.7917 61.979 60.7717 61.979 61.9792V66.3542C61.979 67.5617 60.999 68.5417 59.7915 68.5417Z" fill="#0090FF"/>
<path d="M60.8854 64.1667H54.6875C53.48 64.1667 52.5 63.1867 52.5 61.9792C52.5 60.7717 53.48 59.7917 54.6875 59.7917H60.8854C61.8917 59.7917 62.7083 58.975 62.7083 57.9688C62.7083 56.9625 61.8917 56.1458 60.8854 56.1458H58.6979C55.2796 56.1458 52.5 53.3663 52.5 49.9479C52.5 46.5296 55.2796 43.75 58.6979 43.75H64.8958C66.1033 43.75 67.0833 44.73 67.0833 45.9375C67.0833 47.145 66.1033 48.125 64.8958 48.125H58.6979C57.6917 48.125 56.875 48.9417 56.875 49.9479C56.875 50.9542 57.6917 51.7708 58.6979 51.7708H60.8854C64.3037 51.7708 67.0833 54.5504 67.0833 57.9688C67.0833 61.3871 64.3037 64.1667 60.8854 64.1667Z" fill="#0090FF"/>
<path d="M59.7915 48.125C58.584 48.125 57.604 47.145 57.604 45.9375V41.5625C57.604 40.355 58.584 39.375 59.7915 39.375C60.999 39.375 61.979 40.355 61.979 41.5625V45.9375C61.979 47.145 60.999 48.125 59.7915 48.125Z" fill="#0090FF"/>
<path d="M10.2085 68.5417C9.001 68.5417 8.021 67.5617 8.021 66.3542V61.9792C8.021 60.7717 9.001 59.7917 10.2085 59.7917C11.416 59.7917 12.396 60.7717 12.396 61.9792V66.3542C12.396 67.5617 11.416 68.5417 10.2085 68.5417Z" fill="#0090FF"/>
<path d="M11.3019 64.1667H5.104C3.8965 64.1667 2.9165 63.1867 2.9165 61.9792C2.9165 60.7717 3.8965 59.7917 5.104 59.7917H11.3019C12.3082 59.7917 13.1248 58.975 13.1248 57.9688C13.1248 56.9625 12.3082 56.1458 11.3019 56.1458H9.11442C5.69609 56.1458 2.9165 53.3663 2.9165 49.9479C2.9165 46.5296 5.69609 43.75 9.11442 43.75H15.3123C16.5198 43.75 17.4998 44.73 17.4998 45.9375C17.4998 47.145 16.5198 48.125 15.3123 48.125H9.11442C8.10817 48.125 7.2915 48.9417 7.2915 49.9479C7.2915 50.9542 8.10817 51.7708 9.11442 51.7708H11.3019C14.7203 51.7708 17.4998 54.5504 17.4998 57.9688C17.4998 61.3871 14.7203 64.1667 11.3019 64.1667Z" fill="#0090FF"/>
<path d="M10.2085 48.125C9.001 48.125 8.021 47.145 8.021 45.9375V41.5625C8.021 40.355 9.001 39.375 10.2085 39.375C11.416 39.375 12.396 40.355 12.396 41.5625V45.9375C12.396 47.145 11.416 48.125 10.2085 48.125Z" fill="#0090FF"/>
<path d="M8.021 37.2225C6.8135 37.2225 5.8335 36.2425 5.8335 35.035C5.8335 23.73 12.4602 13.3437 22.7152 8.57498C23.8089 8.06748 25.1127 8.53998 25.6231 9.63665C26.1277 10.7304 25.6552 12.0312 24.5585 12.5417C15.8406 16.5958 10.2085 25.4246 10.2085 35.035C10.2085 36.2425 9.2285 37.2225 8.021 37.2225Z" fill="white"/>
<path d="M61.9792 37.2225C60.7717 37.2225 59.7917 36.2425 59.7917 35.035C59.7917 25.4246 54.1596 16.5958 45.4417 12.5417C44.348 12.0312 43.8726 10.7304 44.3801 9.63374C44.8905 8.53999 46.1913 8.06457 47.288 8.57207C57.5401 13.3437 64.1667 23.73 64.1667 35.035C64.1667 36.2425 63.1867 37.2225 61.9792 37.2225Z" fill="white"/>
<path d="M35.0001 64.2017C30.7097 64.2017 26.5768 63.2917 22.7152 61.495C21.6214 60.9846 21.146 59.6838 21.6535 58.5871C22.1639 57.4933 23.4647 57.0208 24.5614 57.5254C31.121 60.5792 38.8822 60.5792 45.4418 57.5254C46.5385 57.0208 47.8364 57.4904 48.3497 58.5871C48.8572 59.6808 48.3847 60.9846 47.2881 61.495C43.4235 63.2888 39.2906 64.2017 35.0001 64.2017Z" fill="white"/>
</g>
<defs>
<clipPath id="clip0">
<rect width="70" height="70" fill="white"/>
</clipPath>
</defs>
</svg>
