<svg width="70" height="70" viewBox="0 0 70 70" fill="none" xmlns="http://www.w3.org/2000/svg">
<path d="M54.8987 18.1789L57.3675 15.0931L54.6328 12.9056L52.1712 15.982C47.7658 12.8588 42.4785 10.9222 36.7501 10.5885V3.5H42.0001C42.9673 3.5 43.7501 2.71715 43.7501 1.75C43.75 0.782852 42.9672 0 42 0H28C27.0329 0 26.25 0.782852 26.25 1.75C26.25 2.71715 27.0329 3.5 28 3.5H33.25V10.5887C27.5216 10.9225 22.2343 12.8602 17.8289 15.9834L15.3673 12.9069L12.6327 15.0944L15.1014 18.1803C9.06623 23.6239 5.25 31.4813 5.25 40.25C5.25 56.6802 18.5698 70 35 70C51.4302 70 64.75 56.6802 64.75 40.25C64.75 31.4813 60.9339 23.6239 54.8987 18.1789ZM35 66.5C20.5263 66.5 8.75 54.7237 8.75 40.25C8.75 25.7763 20.5263 14 35 14C49.4737 14 61.25 25.7763 61.25 40.25C61.25 54.7237 49.4737 66.5 35 66.5Z" fill="white"/>
<path d="M35 35C32.1009 35 29.75 37.3509 29.75 40.25C29.75 42.532 31.2154 44.4559 33.25 45.1791V63H36.75V45.1791C38.7846 44.4557 40.25 42.5331 40.25 40.25C40.25 37.3509 37.8991 35 35 35ZM35 42C34.0352 42 33.25 41.2148 33.25 40.25C33.25 39.2852 34.0352 38.5 35 38.5C35.9648 38.5 36.75 39.2852 36.75 40.25C36.75 41.2148 35.9648 42 35 42Z" fill="white"/>
<path d="M35 17.5V21C45.6143 21 54.25 29.6357 54.25 40.25C54.25 49.0432 48.3175 56.4609 40.25 58.7534V62.3666C50.2787 59.9936 57.75 51.0044 57.75 40.2501C57.75 27.685 47.565 17.5 35 17.5Z" fill="#0090FF"/>
</svg>
